<mxfile host="app.diagrams.net" modified="2023-12-11T22:07:30.904Z" agent="Mozilla/5.0 (Windows NT 10.0; Win64; x64) AppleWebKit/537.36 (KHTML, like Gecko) Chrome/119.0.0.0 Safari/537.36" etag="DUhJ7J_wVtxcyyU7UY2e" version="22.1.7" type="device">
  <diagram name="Page-1" id="uy6FMG2pJlHmFfniU0IM">
    <mxGraphModel dx="1224" dy="1110" grid="1" gridSize="10" guides="1" tooltips="1" connect="1" arrows="1" fold="1" page="1" pageScale="1" pageWidth="850" pageHeight="1100" math="0" shadow="0">
      <root>
        <mxCell id="0" />
        <mxCell id="1" parent="0" />
        <mxCell id="T3b5-Nm2skOXsnKoCChf-1" value="" style="shape=image;verticalLabelPosition=bottom;labelBackgroundColor=default;verticalAlign=top;aspect=fixed;imageAspect=0;image=https://www.svgrepo.com/show/255830/svg.svg;" vertex="1" parent="1">
          <mxGeometry x="1340" y="50" width="210" height="210" as="geometry" />
        </mxCell>
        <mxCell id="T3b5-Nm2skOXsnKoCChf-4" value="" style="shape=image;verticalLabelPosition=bottom;labelBackgroundColor=default;verticalAlign=top;aspect=fixed;imageAspect=0;image=data:image/svg+xml,PHN2ZyB4bWxucz0iaHR0cDovL3d3dy53My5vcmcvMjAwMC9zdmciIHN0cm9rZS13aWR0aD0iMC4wMDAyNDAwMDAwMDAwMDAwMDAwMyIgc3Ryb2tlPSIjZjJkYjYzIiByb2xlPSJpbWciIHZpZXdCb3g9IjAgMCAyNCAyNCIgaGVpZ2h0PSI4MDBweCIgd2lkdGg9IjgwMHB4IiBmaWxsPSIjZjJkYjYzIj4mI3hhOyYjeGE7PGcgc3Ryb2tlLXdpZHRoPSIwIiBpZD0iU1ZHUmVwb19iZ0NhcnJpZXIiLz4mI3hhOyYjeGE7PGcgc3Ryb2tlLWxpbmVqb2luPSJyb3VuZCIgc3Ryb2tlLWxpbmVjYXA9InJvdW5kIiBpZD0iU1ZHUmVwb190cmFjZXJDYXJyaWVyIi8+JiN4YTsmI3hhOzxnIGlkPSJTVkdSZXBvX2ljb25DYXJyaWVyIj4mI3hhOyYjeGE7PHRpdGxlPkxhYlZJRVcgaWNvbjwvdGl0bGU+JiN4YTsmI3hhOzxwYXRoIGQ9Ik05LjE3NiA0LjQ2OWEuODE3LjgxNyAwIDAwLS43NjguODE2djcuMDU1YS44MTYuODE2IDAgMDAxLjE4Mi43M2w3LjA1OC0zLjUyN2EuODE4LjgxOCAwIDAwMC0xLjQ2M0w5LjU5IDQuNTUzYS44MDguODA4IDAgMDAtLjQxNC0uMDg0em0xLjkxOCAzLjEwN2guNjM4di45MTZoLjkxNnYuNjM5aC0uOTE2di45MThoLS42MzhWOS4xM2gtLjkxOHYtLjYzOWguOTE4di0uOTE2em0tNC43NTIgNy41MXYuMzY3aC4yNjJjLjA4NiAwIC4xMzYuMDUuMTM2LjEzN3YzLjg2OWguNDF2LS4yNzNhMi42IDIuNiAwIDAwLS4wMTEtLjI1NmguMDExcy4yODEuNjAzIDEuMDI4LjYwM2MuODIgMCAxLjQxLS42NDYgMS40MS0xLjYzNSAwLS45Ny0uNTIyLTEuNjQyLTEuMzYxLTEuNjQyLS44MDIgMC0xLjA2NS41OTgtMS4wNjUuNTk4SDcuMTVzLjAxMi0uMTEzLjAxMi0uMjU2di0xLjEzMWMwLS4yNjctLjExMi0uMzgxLS4zNzktLjM4MWgtLjQ0MXptMi44NTUgMHYuMzg3aC4wNjNjLjExOCAwIC4xOC4wMTguMjI0LjEzNmwxLjQzNiAzLjg1aC40NjdsMS40MzctMy44NWMuMDQ0LS4xMTguMTA1LS4xMzYuMjIzLS4xMzZoLjgzNHYzLjYwMWgtLjQxdi4zODVoMS4yNXYtLjM4NWgtLjQxOHYtMy42MDFoLjQxOHYtLjM4N2gtMS44MDVjLS4zMSAwLS40MDQuMDU2LS41MTYuMzYxbC0xLjA3NiAyLjk0MmMtLjA4LjIyMy0uMTY4LjU2Ni0uMTY4LjU2NmgtLjAxMXMtLjA4OC0uMzQzLS4xNjgtLjU2Nkw5LjkgMTUuNDQ3Yy0uMTA1LS4yOTgtLjE5OS0uMzYxLS41MS0uMzYxaC0uMTkzem01LjkyMiAwdi4zODdoLjQwNHYzLjYwN2MwIC4yNjguMTEyLjM3OS4zOC4zNzloMS44OWMuMjY4IDAgLjM3OS0uMTExLjM3OS0uMzc5di0uNDM1aC0uNDA0di4yOWMwIC4wOTQtLjA1LjE0LS4xMzcuMTRoLTEuNTM1Yy0uMDg3IDAtLjEzNy0uMDQ2LS4xMzctLjE0di0xLjQ4NGgxLjY0di0uMzg3aC0xLjY0di0xLjU5MWgxLjQ5MmMuMDg3IDAgLjEzNy4wNDMuMTM3LjEzNnYuMjkzaC40MXYtLjQzNWMwLS4yNjgtLjExMi0uMzgxLS4zNzktLjM4MWgtMi41ek0wIDE1LjA4OHYuMzg1aC4yNjhjLjA4NiAwIC4xMzYuMDQzLjEzNi4xMzZ2My40NzFjMCAuMjY4LjExMi4zNzkuMzguMzc5aDEuODFjLjI2NyAwIC4zNzktLjExMS4zNzktLjM3OXYtLjQzNWgtLjQxdi4yOWMwIC4wOTQtLjA1LjEzNy0uMTM3LjEzN0guOTc2Yy0uMDg2IDAtLjEzNi0uMDQzLS4xMzYtLjEzNnYtMy40N2MwLS4yNjctLjExMi0uMzc4LS4zOC0uMzc4SDB6bTE4LjMzNCAwdi4zODVoLjA3NmMuMTE4IDAgLjE5Ny4wMTguMjI5LjEzNmwxLjAwMiAzLjg1aC41MTVsLjg5Ny0zLjA0N2MuMDgtLjI4LjE1Ni0uNjQuMTU2LS42NGguMDEycy4wNjcuMzY2LjE0Mi42NDZsLjgxNSAzLjA0MWguNTE1bDEuMDA4LTMuODVjLjAzMS0uMTE4LjEwNi0uMTM2LjIzLS4xMzZIMjR2LS4zODVoLS4xOTNjLS4zMTEgMC0uNDUzLjA1NS0uNTI4LjM2bC0uNzYgMy4wMTVjLS4wNTUuMjI0LS4xLjQ2Ny0uMS40NjdoLS4wMXMtLjAzOS0uMjQzLS4xLS40NjdsLS44NzctMy4zNThoLS40M2wtLjk2MyAzLjM1OGMtLjA2Mi4yMjQtLjEyLjQ2Ny0uMTIuNDY3aC0uMDFzLS4wMzktLjI0My0uMDk1LS40NjdsLS43NTctMy4wMTZjLS4wNzUtLjMwNC0uMjE5LS4zNi0uNTMtLjM2aC0uMTkzek00LjYzNyAxNi4yNTZjLS4yNzQgMC0xLjAyLjA5NC0xLjAyLjUzdi4yOThoLjQwNHYtLjJjMC0uMjMuNDU0LS4yNzMuNjEtLjI3My41NzIgMCAuODA4LjIzLjgwOC44ODN2LjAzN2gtLjE3M2MtLjU0MiAwLTEuOTE2LjAzOC0xLjkxNiAxLjA3NiAwIC42MjIuNTQuOTI2IDEuMDYyLjkyNi43ODQgMCAxLjA0Ni0uNjc4IDEuMDQtLjY3OGguMDFzLS4wMDUuMDk0LS4wMDUuMjNjMCAuMjU2LjEwNi4zNzQuMzczLjM3NGguNDN2LS4zNjdoLS4yNjJjLS4wODcgMC0uMTM3LS4wNDQtLjEzNy0uMTM3di0xLjQ5OGMwLS42NzItLjIzNi0xLjIwMS0xLjIyNC0xLjIwMXptMy41MjcuMzg3Yy41NzggMCAuOTg4LjQ5Ljk4OCAxLjI1NSAwIC43OTYtLjQ1MiAxLjI2Mi0xLjAwNiAxLjI2Mi0uNjcxIDAtLjk5Ni0uNjI4LS45OTYtMS4yNTYgMC0uODg5LjQ5Mi0xLjI2MSAxLjAxNC0xLjI2MXptLTIuOTA2IDEuMjI0aC4xODF2LjE0M2MwIC41NC0uMzYyIDEuMTYyLS45NTkgMS4xNjItLjQ2NiAwLS42OTUtLjI5OC0uNjk1LS41OSAwLS43MDMuOTgyLS43MTUgMS40NzMtLjcxNVoiLz4mI3hhOyYjeGE7PC9nPiYjeGE7JiN4YTs8L3N2Zz4=;" vertex="1" parent="1">
          <mxGeometry x="900" y="50" width="220" height="220" as="geometry" />
        </mxCell>
        <mxCell id="T3b5-Nm2skOXsnKoCChf-5" value="" style="shape=flexArrow;endArrow=classic;startArrow=classic;html=1;rounded=0;fillColor=#dae8fc;strokeColor=#6c8ebf;" edge="1" parent="1">
          <mxGeometry width="100" height="100" relative="1" as="geometry">
            <mxPoint x="1140" y="150" as="sourcePoint" />
            <mxPoint x="1320" y="150" as="targetPoint" />
          </mxGeometry>
        </mxCell>
      </root>
    </mxGraphModel>
  </diagram>
</mxfile>
